<svg aria-hidden="true" style="position: absolute; width: 0; height: 0; overflow: hidden;" version="1.1" xmlns="http://www.w3.org/2000/svg" xmlns:xlink="http://www.w3.org/1999/xlink">
<defs>
<symbol id="icon-llight" viewBox="0 0 20 20">
<path d="M11.638 12.462c0.772-0.198 1.443-0.633 1.94-1.259 0.609-0.767 0.879-1.726 0.76-2.698s-0.612-1.838-1.388-2.437c-0.752-0.58-1.69-0.838-2.64-0.726s-1.803 0.58-2.4 1.319c-0.512 0.633-0.791 1.397-0.808 2.208-0.027 1.318-0.481 2.597-1.279 3.602l-0.873 1.1c-0.387 0.488-0.305 1.2 0.183 1.587l0.823 0.653c0.488 0.387 1.2 0.305 1.587-0.183l0.873-1.1c0.807-1.016 1.918-1.733 3.222-2.068zM7.568 8.878c0.014-0.707 0.258-1.373 0.704-1.925 1.072-1.326 3.043-1.558 4.394-0.517 0.677 0.523 1.107 1.276 1.21 2.124s-0.132 1.683-0.663 2.353c-0.433 0.546-1.018 0.925-1.691 1.098-1.373 0.352-2.554 1.097-3.419 2.158l-1.861-1.477c0.828-1.074 1.298-2.424 1.326-3.814zM5.413 13.737l0.117-0.148 1.694 1.693-0.046 0.058c-0.024 0.030-0.051 0.057-0.079 0.082l-1.687-1.685zM5.822 13.222l0.131-0.166 1.864 1.479-0.301 0.379-1.694-1.693zM5.422 14.794c-0.196-0.156-0.28-0.4-0.242-0.631l1.427 1.426c-0.128-0.010-0.254-0.056-0.362-0.142l-0.823-0.653z"></path>
<path d="M8.712 7.787c0.062-0.107 0.133-0.21 0.211-0.307 0.081-0.1 0.065-0.247-0.035-0.327s-0.247-0.065-0.327 0.035c-0.094 0.116-0.179 0.24-0.253 0.368-0.058 0.101-0.032 0.228 0.057 0.298 0.009 0.007 0.019 0.014 0.029 0.020 0.111 0.064 0.254 0.026 0.318-0.085z"></path>
<path d="M7.587 11.409c0.019 0.015 0.040 0.027 0.064 0.036 0.121 0.044 0.254-0.017 0.299-0.138 0.286-0.775 0.439-1.587 0.456-2.412 0.003-0.137 0.017-0.273 0.043-0.405 0.025-0.126-0.057-0.249-0.184-0.273s-0.249 0.057-0.273 0.184c-0.031 0.158-0.049 0.322-0.052 0.485-0.016 0.774-0.159 1.534-0.427 2.261-0.036 0.097-0.003 0.202 0.074 0.263z"></path>
<path d="M12.154 11.090c-0.061-0.113-0.202-0.156-0.315-0.095-0.164 0.088-0.341 0.157-0.524 0.204-0.125 0.032-0.2 0.159-0.168 0.283 0.013 0.051 0.042 0.094 0.081 0.124 0.055 0.044 0.129 0.062 0.203 0.043 0.22-0.056 0.431-0.139 0.629-0.245 0.113-0.061 0.156-0.202 0.095-0.315z"></path>
<path d="M12.18 7.121c1.005 0.798 1.174 2.265 0.376 3.271-0.045 0.057-0.094 0.113-0.144 0.165-0.089 0.093-0.085 0.24 0.008 0.329 0.005 0.005 0.011 0.010 0.016 0.014 0.093 0.074 0.229 0.066 0.313-0.022 0.060-0.063 0.118-0.129 0.172-0.197 0.958-1.207 0.755-2.967-0.451-3.925-0.101-0.080-0.247-0.063-0.327 0.038s-0.063 0.247 0.038 0.327z"></path>
<path d="M13.241 5.785c0.101 0.080 0.247 0.063 0.327-0.038l0.811-1.021c0.080-0.101 0.063-0.247-0.038-0.327s-0.247-0.063-0.327 0.038l-0.811 1.021c-0.080 0.101-0.063 0.247 0.038 0.327z"></path>
<path d="M11.11 4.681c-0.013 0.085 0.023 0.167 0.086 0.217 0.031 0.025 0.069 0.042 0.11 0.048 0.127 0.019 0.246-0.069 0.264-0.196l0.191-1.289c0.019-0.127-0.069-0.246-0.196-0.264s-0.246 0.069-0.264 0.196l-0.191 1.289z"></path>
<path d="M12.986 14.109l-0.479-1.212c-0.047-0.12-0.183-0.178-0.302-0.131s-0.178 0.183-0.131 0.302l0.479 1.212c0.016 0.039 0.041 0.072 0.072 0.097 0.063 0.050 0.15 0.066 0.231 0.034 0.12-0.047 0.178-0.183 0.131-0.302z"></path>
<path d="M8.429 3.843l0.479 1.212c0.016 0.039 0.041 0.072 0.072 0.097 0.063 0.050 0.15 0.066 0.231 0.034 0.12-0.047 0.178-0.182 0.131-0.302l-0.479-1.212c-0.047-0.12-0.183-0.178-0.302-0.131s-0.178 0.182-0.131 0.302z"></path>
<path d="M15.247 12.282l-1.021-0.811c-0.101-0.080-0.247-0.063-0.327 0.038s-0.063 0.247 0.038 0.327l1.021 0.811c0.101 0.080 0.247 0.063 0.327-0.038s0.063-0.247-0.038-0.327z"></path>
<path d="M7.517 6.443c0.080-0.101 0.063-0.247-0.038-0.327l-1.021-0.811c-0.101-0.080-0.247-0.063-0.327 0.038s-0.063 0.247 0.038 0.327l1.021 0.811c0.101 0.080 0.247 0.063 0.327-0.038z"></path>
<path d="M14.824 9.791c0.031 0.025 0.069 0.042 0.11 0.048l1.289 0.191c0.127 0.019 0.246-0.069 0.264-0.196s-0.069-0.246-0.196-0.264l-1.289-0.191c-0.127-0.019-0.246 0.069-0.264 0.196-0.013 0.085 0.023 0.167 0.086 0.217z"></path>
<path d="M6.481 8.113l-1.289-0.191c-0.127-0.019-0.246 0.069-0.264 0.196-0.013 0.085 0.023 0.167 0.086 0.217 0.031 0.025 0.069 0.042 0.11 0.048l1.289 0.191c0.127 0.019 0.246-0.069 0.264-0.196s-0.069-0.246-0.196-0.264z"></path>
<path d="M14.497 7.479c0.016 0.039 0.041 0.072 0.072 0.097 0.063 0.050 0.15 0.066 0.231 0.034l1.212-0.479c0.12-0.047 0.178-0.182 0.131-0.302s-0.183-0.178-0.302-0.131l-1.212 0.479c-0.12 0.047-0.178 0.183-0.131 0.302z"></path>
</symbol>
</defs>
</svg>
